<?xml version="1.0" encoding="utf-8"?>
<!-- Generator: Adobe Illustrator 17.1.0, SVG Export Plug-In . SVG Version: 6.00 Build 0)  -->
<!DOCTYPE svg PUBLIC "-//W3C//DTD SVG 1.1//EN" "http://www.w3.org/Graphics/SVG/1.1/DTD/svg11.dtd">
<svg version="1.1" id="Layer_1" xmlns="http://www.w3.org/2000/svg" xmlns:xlink="http://www.w3.org/1999/xlink" x="0px" y="0px"
	 viewBox="0 0 800 992" enable-background="new 0 0 800 992" xml:space="preserve">
<rect fill="#1E1D57" width="800" height="992"/>
<g>
	<g>
		<g>
			<path fill="#FFFFFF" d="M454.7,378.6c0,8.2-1.6,15.9-4.7,23c-3.2,7.2-7.4,13.4-12.7,18.8c-5.4,5.3-11.7,9.5-18.9,12.6
				c-7.3,3-14.9,4.6-23,4.6c-5.2,0-10-0.6-14.4-1.7l5.9-23.9c2.5,0.9,5.3,1.4,8.5,1.4c4.7,0,9.2-0.9,13.5-2.7
				c4.2-1.8,7.9-4.3,11.1-7.5c3.2-3.2,5.6-6.9,7.5-11.1c1.8-4.3,2.7-8.8,2.7-13.7c0-4.7-0.9-9.2-2.7-13.4c-1.8-4.2-4.3-7.8-7.5-11
				c-3.2-3.2-6.9-5.7-11.1-7.5c-4.3-1.8-8.8-2.7-13.5-2.7c-4.7,0-9.2,0.9-13.5,2.7c-4.3,1.8-8,4.3-11.1,7.5c-3.1,3.2-5.6,6.8-7.4,11
				c-1.8,4.2-2.7,8.6-2.7,13.4v97.9c-8.6-3-16.7-7.2-24.1-12.2v-85.7c0-8,1.5-15.6,4.6-22.8c3-7.2,7.3-13.4,12.5-18.8
				c5.3-5.4,11.5-9.6,18.7-12.8c7.2-3.2,14.9-4.7,23-4.7c8,0,15.7,1.6,23,4.7c7.2,3.2,13.5,7.4,18.9,12.8
				c5.3,5.4,9.6,11.6,12.7,18.8C453.2,363,454.7,370.6,454.7,378.6z"/>
		</g>
		<g>
			<path fill="#FFFFFF" d="M494.1,382.1c0,55.2-44.9,100.1-100.1,100.1c-11.7,0-22.9-2-33.3-5.7v-23.7c10.1,4.8,21.4,7.5,33.3,7.5
				c43.2,0,78.2-35.1,78.2-78.3c0-43.2-35.1-78.2-78.2-78.2c-43.1,0-78.3,35.1-78.3,78.2c0,9,1.5,17.8,4.4,25.8
				c3.2,9-17.5,15.2-17.9,14.2c-5.4-12.3-8.4-25.8-8.4-40c0-55.2,45-100.2,100.2-100.2C449.2,281.9,494.1,326.8,494.1,382.1z"/>
			<path fill="#FFFFFF" d="M360.7,452.8v23.7c0,0,0,0,0,0L360.7,452.8C360.6,452.8,360.6,452.8,360.7,452.8z"/>
		</g>
	</g>
	<g>
		<g>
			<path fill="#FFFFFF" d="M294.5,547.4c-0.6,1.5-0.9,3.1-0.9,4.9c0,1.8,0.3,3.4,0.9,4.9c0.6,1.5,1.5,2.8,2.6,3.9
				c1.1,1.1,2.4,1.9,3.9,2.5c1.5,0.6,3.1,0.9,5,0.9c1.8,0,3.5-0.3,5-1c1.5-0.6,2.9-1.7,4.2-3.1l4.1,4c-1.6,1.8-3.6,3.3-5.9,4.3
				c-2.4,1-4.9,1.5-7.8,1.5c-2.7,0-5.1-0.4-7.3-1.3c-2.3-0.8-4.2-2.1-5.9-3.7c-1.6-1.6-2.9-3.5-3.8-5.6c-1-2.2-1.4-4.5-1.4-7.1
				s0.4-4.9,1.4-7.1c0.9-2.2,2.2-4,3.9-5.6c1.7-1.6,3.6-2.8,5.9-3.7c2.3-0.9,4.7-1.3,7.3-1.3c2.8,0,5.4,0.5,7.8,1.4
				c2.3,1,4.3,2.4,5.9,4.3l-4.1,3.9c-1.3-1.3-2.7-2.4-4.2-3c-1.5-0.7-3.2-1-5-1c-1.8,0-3.4,0.3-5,0.9c-1.5,0.6-2.8,1.4-3.9,2.5
				C295.9,544.6,295,545.9,294.5,547.4z"/>
			<polygon fill="#FFFFFF" points="331.8,540.4 331.8,549.4 348.4,549.4 348.4,554.7 325.3,554.7 325.3,535.1 350.5,535.1 
				350.5,540.4 			"/>
			<path fill="#FFFFFF" d="M229.7,540.8c-1.2-1.8-2.9-3.3-5.1-4.2c-2.2-1-4.8-1.5-7.8-1.5h-14.2v34.5h6.4v-10h7.8
				c3,0,5.6-0.5,7.8-1.5c2.2-1,3.9-2.4,5.1-4.2c1.2-1.8,1.8-4,1.8-6.6C231.4,544.8,230.8,542.6,229.7,540.8z M222.8,552.4
				c-1.5,1.2-3.6,1.8-6.4,1.8H209v-13.7h7.5c2.8,0,4.9,0.6,6.4,1.8c1.4,1.2,2.1,2.8,2.1,5S224.3,551.2,222.8,552.4z"/>
			<path fill="#FFFFFF" d="M259.4,558.3c0.2-0.1,0.3-0.1,0.5-0.2c2.2-1,3.9-2.4,5.1-4.2c1.2-1.8,1.8-4,1.8-6.5
				c0-2.5-0.6-4.7-1.8-6.5c-1.2-1.8-2.9-3.3-5.1-4.2c-2.2-1-4.8-1.5-7.8-1.5h-14.2v34.5h6.4v-10h7.8c0.5,0,0.9,0,1.3-0.1l7.1,10.1
				h6.9L259.4,558.3z M258.1,552.4c-1.4,1.2-3.5,1.8-6.4,1.8h-7.5v-13.7h7.5c2.8,0,4.9,0.6,6.4,1.8c1.4,1.2,2.1,2.8,2.1,5
				S259.5,551.2,258.1,552.4z"/>
			<rect x="273.8" y="535.1" fill="#FFFFFF" width="6.4" height="34.5"/>
			<rect x="325.3" y="564.2" fill="#FFFFFF" width="25.9" height="5.3"/>
			<polygon fill="#FFFFFF" points="413.4,535.1 438.6,535.1 438.6,540.4 419.8,540.4 419.8,550.9 436.5,550.9 436.5,556.3 
				419.8,556.3 419.8,569.5 413.4,569.5 			"/>
			<polygon fill="#FFFFFF" points="444.8,535.1 470,535.1 470,540.4 451.2,540.4 451.2,550.9 467.8,550.9 467.8,556.3 451.2,556.3 
				451.2,569.5 444.8,569.5 			"/>
			<path fill="#FFFFFF" d="M401.3,539.6c-1.7-1.6-3.6-2.9-5.9-3.7c-2.2-0.9-4.7-1.3-7.4-1.3c-2.7,0-5.1,0.4-7.4,1.3
				c-2.3,0.9-4.2,2.1-5.9,3.7c-1.7,1.6-3,3.4-3.9,5.6c-0.9,2.1-1.4,4.5-1.4,7.1s0.5,4.9,1.4,7.1c0.9,2.2,2.2,4,3.9,5.6
				c1.7,1.6,3.6,2.9,5.9,3.7c2.3,0.9,4.8,1.3,7.4,1.3c2.7,0,5.1-0.4,7.4-1.3c2.3-0.9,4.2-2.1,5.9-3.7c1.7-1.6,3-3.5,3.9-5.6
				c0.9-2.2,1.4-4.5,1.4-7.1s-0.5-4.9-1.4-7.1C404.3,543.1,403,541.2,401.3,539.6z M399.3,557.2c-0.6,1.5-1.5,2.7-2.6,3.9
				c-1.1,1.1-2.4,1.9-3.9,2.5c-1.5,0.6-3.1,0.9-4.8,0.9c-1.7,0-3.3-0.3-4.8-0.9c-1.5-0.6-2.8-1.4-3.8-2.5c-1.1-1.1-1.9-2.4-2.5-3.9
				c-0.6-1.5-0.9-3.1-0.9-4.8c0-1.8,0.3-3.4,0.9-4.9c0.6-1.4,1.5-2.7,2.6-3.8c1.1-1.1,2.4-1.9,3.8-2.5c1.5-0.6,3.1-0.9,4.8-0.9
				c1.7,0,3.4,0.3,4.8,0.9c1.5,0.6,2.8,1.4,3.9,2.5c1.1,1.1,1.9,2.4,2.6,3.8c0.6,1.5,0.9,3.1,0.9,4.9
				C400.2,554.1,399.9,555.7,399.3,557.2z"/>
			<rect x="476.2" y="535.1" fill="#FFFFFF" width="6.4" height="34.5"/>
			<path fill="#FFFFFF" d="M496.8,547.4c-0.6,1.5-0.9,3.1-0.9,4.9c0,1.8,0.3,3.4,0.9,4.9c0.6,1.5,1.5,2.8,2.6,3.9
				c1.1,1.1,2.4,1.9,3.9,2.5c1.5,0.6,3.2,0.9,5,0.9c1.8,0,3.5-0.3,5-1c1.5-0.6,2.9-1.7,4.2-3.1l4.1,4c-1.6,1.8-3.6,3.3-5.9,4.3
				c-2.3,1-4.9,1.5-7.8,1.5c-2.6,0-5-0.4-7.3-1.3c-2.3-0.8-4.2-2.1-5.9-3.7c-1.6-1.6-3-3.5-3.9-5.6c-0.9-2.2-1.4-4.5-1.4-7.1
				s0.5-4.9,1.4-7.1c0.9-2.2,2.2-4,3.9-5.6c1.7-1.6,3.6-2.8,5.8-3.7c2.2-0.9,4.7-1.3,7.4-1.3c2.8,0,5.4,0.5,7.7,1.4
				c2.3,1,4.3,2.4,5.9,4.3l-4.1,3.9c-1.3-1.3-2.6-2.4-4.2-3c-1.5-0.7-3.2-1-5-1c-1.8,0-3.5,0.3-5,0.9c-1.5,0.6-2.8,1.4-3.9,2.5
				C498.2,544.6,497.4,545.9,496.8,547.4z"/>
			<polygon fill="#FFFFFF" points="534.1,564.2 553.5,564.2 553.5,569.5 527.7,569.5 527.7,535.1 552.8,535.1 552.8,540.4 
				534.1,540.4 534.1,549.4 550.7,549.4 550.7,554.7 534.1,554.7 			"/>
			<path fill="#FFFFFF" d="M585.3,559.8c0,1.8-0.5,3.5-1.5,5.1c-1,1.6-2.5,2.8-4.6,3.7c-2.1,1-4.7,1.4-7.9,1.4
				c-2.7,0-5.3-0.4-7.7-1.1c-2.5-0.8-4.4-1.8-5.9-3l2.2-5c1.4,1.1,3.1,2,5.1,2.7c2,0.7,4.1,1.1,6.2,1.1c1.8,0,3.3-0.2,4.4-0.6
				c1.1-0.4,1.9-0.9,2.5-1.6c0.5-0.7,0.8-1.4,0.8-2.3c0-1-0.4-1.9-1.1-2.6c-0.8-0.6-1.7-1.2-2.9-1.5c-1.2-0.4-2.5-0.7-4-1.1
				c-1.5-0.3-2.9-0.7-4.4-1.1c-1.5-0.4-2.8-1-4-1.7c-1.2-0.7-2.2-1.6-3-2.8c-0.8-1.2-1.1-2.7-1.1-4.6c0-1.8,0.5-3.6,1.5-5.1
				c1-1.6,2.5-2.8,4.6-3.8c2.1-1,4.7-1.4,7.8-1.4c2.1,0,4.1,0.3,6.1,0.8c2,0.5,3.8,1.3,5.3,2.3l-2,4.9c-1.5-0.9-3.2-1.6-4.8-2
				c-1.7-0.4-3.2-0.7-4.7-0.7c-1.8,0-3.2,0.2-4.3,0.7c-1.1,0.4-1.9,1-2.4,1.6c-0.5,0.7-0.8,1.5-0.8,2.4c0,1.1,0.4,1.9,1.1,2.5
				c0.8,0.6,1.7,1.1,2.9,1.5c1.2,0.4,2.5,0.7,4,1.1c1.5,0.3,3,0.7,4.4,1.1c1.5,0.4,2.8,1,4,1.7c1.2,0.7,2.2,1.6,2.9,2.8
				C585,556.5,585.3,558,585.3,559.8z"/>
		</g>
		<g>
			<polygon fill="#FFFFFF" points="230.3,594.2 233,594.2 233,608.8 230.8,608.8 222.8,598.9 222.8,608.8 220.1,608.8 220.1,594.2 
				222.3,594.2 230.3,604.1 			"/>
			<rect x="201" y="594.2" fill="#FFFFFF" width="2.7" height="14.5"/>
			<polygon fill="#FFFFFF" points="279.3,606.5 287.5,606.5 287.5,608.8 276.6,608.8 276.6,594.2 287.2,594.2 287.2,596.5 
				279.3,596.5 279.3,600.3 286.3,600.3 286.3,602.5 279.3,602.5 			"/>
			<polygon fill="#FFFFFF" points="259.9,594.2 262.6,594.2 256.3,608.8 253.6,608.8 247.2,594.2 250.2,594.2 255,605.4 			"/>
			<polygon fill="#FFFFFF" points="400.2,594.2 400.2,608.8 397.9,608.8 389.9,598.9 389.9,608.8 387.2,608.8 387.2,594.2 
				389.5,594.2 397.5,604.1 397.5,594.2 			"/>
			<polygon fill="#FFFFFF" points="344.4,594.2 344.4,608.8 341.9,608.8 341.9,599.1 337.1,607.1 335.9,607.1 331.1,599.3 
				331.1,608.8 328.5,608.8 328.5,594.2 330.8,594.2 336.5,603.9 342.2,594.2 			"/>
			<polygon fill="#FFFFFF" points="363.5,606.5 371.8,606.5 371.8,608.8 360.8,608.8 360.8,594.2 371.5,594.2 371.5,596.5 
				363.5,596.5 363.5,600.3 370.6,600.3 370.6,602.5 363.5,602.5 			"/>
			<path fill="#FFFFFF" d="M312.9,602.8c0.3,0.5,0.5,1.1,0.5,1.9c0,0.8-0.2,1.5-0.6,2.2c-0.4,0.7-1.1,1.2-1.9,1.6
				c-0.9,0.4-2,0.6-3.3,0.6c-1.1,0-2.2-0.2-3.3-0.5c-1-0.3-1.9-0.8-2.5-1.3l0.9-2.1c0.6,0.5,1.3,0.8,2.2,1.1
				c0.9,0.3,1.7,0.5,2.6,0.5c0.8,0,1.4-0.1,1.9-0.3c0.5-0.2,0.8-0.4,1-0.7c0.2-0.3,0.3-0.6,0.3-1c0-0.4-0.2-0.8-0.5-1.1
				c-0.3-0.3-0.7-0.5-1.2-0.6c-0.5-0.2-1.1-0.3-1.7-0.5c-0.6-0.1-1.2-0.3-1.9-0.5c-0.6-0.2-1.2-0.4-1.7-0.7
				c-0.5-0.3-0.9-0.7-1.2-1.2c-0.3-0.5-0.5-1.1-0.5-1.9c0-0.8,0.2-1.5,0.6-2.2c0.4-0.7,1.1-1.2,1.9-1.6c0.9-0.4,2-0.6,3.3-0.6
				c0.9,0,1.7,0.1,2.6,0.3c0.8,0.2,1.6,0.5,2.2,1l-0.9,2.1c-0.6-0.4-1.3-0.7-2-0.9c-0.7-0.2-1.4-0.3-2-0.3c-0.8,0-1.4,0.1-1.8,0.3
				c-0.5,0.2-0.8,0.4-1,0.7c-0.2,0.3-0.3,0.6-0.3,1c0,0.4,0.2,0.8,0.5,1.1c0.3,0.3,0.7,0.5,1.2,0.6c0.5,0.1,1.1,0.3,1.7,0.4
				c0.6,0.1,1.2,0.3,1.9,0.5c0.6,0.2,1.2,0.4,1.7,0.7C312.2,601.9,312.6,602.3,312.9,602.8z"/>
			<path fill="#FFFFFF" d="M461.8,599.5c-0.3,0.6-0.4,1.3-0.4,2s0.1,1.4,0.4,2c0.3,0.6,0.6,1.2,1.1,1.6c0.5,0.5,1,0.8,1.7,1.1
				c0.6,0.3,1.4,0.4,2.1,0.4c0.7,0,1.4-0.1,2.1-0.4c0.3-0.1,0.6-0.2,0.9-0.4v-4.5h2.6v5.8c-0.8,0.6-1.6,1.1-2.7,1.4
				c-1,0.3-2,0.5-3,0.5c-1.1,0-2.2-0.2-3.1-0.6c-1-0.4-1.8-0.9-2.5-1.5c-0.7-0.7-1.3-1.5-1.6-2.4c-0.4-0.9-0.6-1.9-0.6-3
				c0-1.1,0.2-2.1,0.6-3c0.4-0.9,0.9-1.7,1.7-2.4c0.7-0.7,1.5-1.2,2.5-1.6c1-0.4,2-0.6,3.1-0.6c1.2,0,2.3,0.2,3.3,0.6
				c1,0.4,1.8,1,2.5,1.8l-1.7,1.7c-0.6-0.6-1.2-1-1.8-1.3c-0.7-0.3-1.4-0.4-2.2-0.4c-0.8,0-1.5,0.1-2.1,0.4
				c-0.7,0.3-1.2,0.6-1.7,1.1C462.4,598.3,462,598.8,461.8,599.5z"/>
			<polygon fill="#FFFFFF" points="414.7,594.2 427,594.2 427,596.5 422.2,596.5 422.2,608.8 419.5,608.8 419.5,596.5 414.7,596.5 
							"/>
			<path fill="#FFFFFF" d="M497.3,604c0.1,0,0.1-0.1,0.2-0.1c0.9-0.4,1.6-1,2.1-1.8c0.5-0.8,0.8-1.7,0.8-2.8c0-1.1-0.3-2-0.8-2.8
				c-0.5-0.8-1.2-1.4-2.1-1.8c-0.9-0.4-2-0.6-3.3-0.6h-6v14.5h2.7v-4.2h3.3c0.2,0,0.4,0,0.6,0l3,4.3h2.9L497.3,604z M494.1,602.3
				h-3.2v-5.8h3.2c1.2,0,2.1,0.3,2.7,0.7c0.6,0.5,0.9,1.2,0.9,2.1c0,0.9-0.3,1.6-0.9,2.1C496.2,602.1,495.3,602.3,494.1,602.3z"/>
			<path fill="#FFFFFF" d="M529.9,598.5c-0.4-0.9-0.9-1.7-1.6-2.4c-0.7-0.7-1.5-1.2-2.5-1.6c-1-0.4-2-0.6-3.1-0.6
				c-1.1,0-2.2,0.2-3.1,0.6c-1,0.4-1.8,0.9-2.5,1.6c-0.7,0.7-1.3,1.5-1.6,2.4c-0.4,0.9-0.6,1.9-0.6,3c0,1.1,0.2,2.1,0.6,3
				c0.4,0.9,0.9,1.7,1.6,2.4c0.7,0.7,1.5,1.2,2.5,1.6c1,0.4,2,0.6,3.1,0.6c1.1,0,2.2-0.2,3.1-0.6c1-0.4,1.8-0.9,2.5-1.5
				c0.7-0.7,1.3-1.5,1.6-2.4c0.4-0.9,0.6-1.9,0.6-3C530.5,600.4,530.3,599.4,529.9,598.5z M527.4,603.5c-0.3,0.6-0.6,1.2-1.1,1.6
				c-0.5,0.5-1,0.8-1.6,1.1c-0.6,0.3-1.3,0.4-2,0.4s-1.4-0.1-2-0.4c-0.6-0.3-1.2-0.6-1.6-1.1c-0.5-0.5-0.8-1-1.1-1.6
				c-0.3-0.6-0.4-1.3-0.4-2s0.1-1.4,0.4-2c0.3-0.6,0.6-1.2,1.1-1.6c0.5-0.5,1-0.8,1.6-1.1c0.6-0.3,1.3-0.4,2-0.4s1.4,0.1,2,0.4
				c0.6,0.3,1.2,0.6,1.6,1.1c0.5,0.5,0.8,1,1.1,1.6c0.3,0.6,0.4,1.3,0.4,2C527.8,602.3,527.7,602.9,527.4,603.5z"/>
			<path fill="#FFFFFF" d="M555.8,594.2h2.7v8.2c0,2.1-0.6,3.7-1.7,4.9c-1.1,1.1-2.7,1.7-4.7,1.7c-2,0-3.6-0.6-4.7-1.7
				s-1.7-2.7-1.7-4.9v-8.2h2.7v8.1c0,1.5,0.3,2.6,1,3.3c0.6,0.7,1.6,1,2.7,1s2.1-0.3,2.7-1s1-1.8,1-3.3V594.2z"/>
			<path fill="#FFFFFF" d="M586.2,596.6c-0.5-0.8-1.2-1.4-2.1-1.8c-0.9-0.4-2-0.6-3.3-0.6h-6v14.5h2.7v-4.2h3.3
				c1.3,0,2.4-0.2,3.3-0.6c0.9-0.4,1.6-1,2.1-1.8c0.5-0.8,0.8-1.7,0.8-2.8C586.9,598.3,586.7,597.4,586.2,596.6z M583.3,601.5
				c-0.6,0.5-1.5,0.8-2.7,0.8h-3.2v-5.8h3.2c1.2,0,2.1,0.3,2.7,0.7c0.6,0.5,0.9,1.2,0.9,2.1C584.2,600.3,583.9,601,583.3,601.5z"/>
		</g>
	</g>
</g>
</svg>
